<?xml version="1.0" encoding="UTF-8"?>
<svg xmlns="http://www.w3.org/2000/svg" width="256" height="256" viewBox="0 0 256 256">
  <circle cx="128" cy="128" r="118" fill="white"/>

  <!-- Left leaf -->
  <path d="M84 190 C34 150 34 62 94 34 C134 70 134 150 84 190 Z"
        fill="#781946"/>
  <path d="M90 172 C84 136 90 102 109 54"
        fill="none" stroke="white" stroke-width="5" stroke-linecap="round"/>

  <!-- Right leaf -->
  <path d="M172 190 C222 150 222 62 162 34 C122 70 122 150 172 190 Z"
        fill="#2E7D32"/>
  <path d="M166 172 C172 136 166 102 147 54"
        fill="none" stroke="white" stroke-width="5" stroke-linecap="round"/>

  <!-- Top leaf -->
  <path d="M128 12 C112 30 112 82 128 110 C144 82 144 30 128 12 Z"
        fill="#781946"/>
  <path d="M128 12 C144 30 144 82 128 110 C128 74 128 42 128 12 Z"
        fill="#2E7D32"/>
  <line x1="128" y1="18" x2="128" y2="104"
        stroke="white" stroke-width="3" stroke-linecap="round"/>

  <!-- Flow dots -->
  <g fill="#781946">
    <circle cx="48" cy="62" r="4"/>
    <circle cx="63" cy="49" r="3.5"/>
    <circle cx="80" cy="39" r="2.5"/>
  </g>

  <g fill="#2E7D32">
    <circle cx="208" cy="62" r="4"/>
    <circle cx="193" cy="49" r="3.5"/>
    <circle cx="176" cy="39" r="2.5"/>
  </g>
</svg>
