<?xml version="1.0" encoding="UTF-8"?>
<svg xmlns="http://www.w3.org/2000/svg" width="64" height="64" viewBox="0 0 64 64">
  <rect width="64" height="64" rx="12" fill="white"/>

  <!-- Left leaf -->
  <path d="M21 49 C8 39 8 16 24 9 C34 18 34 39 21 49 Z" fill="#781946"/>
  <path d="M22.5 45 C21 36 22 27 27 14" fill="none" stroke="white" stroke-width="1.8" stroke-linecap="round"/>

  <!-- Right leaf -->
  <path d="M43 49 C56 39 56 16 40 9 C30 18 30 39 43 49 Z" fill="#2E7D32"/>
  <path d="M41.5 45 C43 36 42 27 37 14" fill="none" stroke="white" stroke-width="1.8" stroke-linecap="round"/>

  <!-- Top leaf -->
  <path d="M32 3 C28 8 28 20 32 27 C36 20 36 8 32 3 Z" fill="#781946"/>
  <path d="M32 3 C36 8 36 20 32 27 C32 18 32 10 32 3 Z" fill="#2E7D32"/>
  <line x1="32" y1="5" x2="32" y2="25" stroke="white" stroke-width="1.2" stroke-linecap="round"/>

  <!-- Flow dots -->
  <circle cx="12" cy="16" r="1.5" fill="#781946"/>
  <circle cx="16" cy="13" r="1.2" fill="#781946"/>
  <circle cx="20" cy="11" r="0.9" fill="#781946"/>

  <circle cx="52" cy="16" r="1.5" fill="#2E7D32"/>
  <circle cx="48" cy="13" r="1.2" fill="#2E7D32"/>
  <circle cx="44" cy="11" r="0.9" fill="#2E7D32"/>
</svg>
